<?xml version="1.0" standalone="no"?><svg xmlns:xlink="http://www.w3.org/1999/xlink" xmlns="http://www.w3.org/2000/svg" viewBox="0 0 1000 500" preserveAspectRatio="xMaxYMax slice"><g transform="scale(0.49067713444553485)"><rect x="0" y="0" width="2038" height="1019" fill="#ffffff"/><circle cx="138.95499999999998" cy="46.315" r="9.265" fill="#fdfdfd"/><g transform="translate(314.96,37.05) scale(0.9265000000000001) rotate(0)"><path fill-rule="evenodd" clip-rule="evenodd" d="M10 20C15.5228 20 20 15.5228 20 10C20 4.47715 15.5228 0 10 0C4.47715 0 0 4.47715 0 10C0 15.5228 4.47715 20 10 20ZM10 17C13.866 17 17 13.866 17 10C17 6.13401 13.866 3 10 3C6.13401 3 3 6.13401 3 10C3 13.866 6.13401 17 10 17Z" fill="#fefefe"/></g><g transform="translate(500.24,37.05) scale(0.9265000000000001) rotate(0)"><path fill-rule="evenodd" clip-rule="evenodd" d="M10 20C15.5228 20 20 15.5228 20 10C20 4.47715 15.5228 0 10 0C4.47715 0 0 4.47715 0 10C0 15.5228 4.47715 20 10 20ZM10 17C13.866 17 17 13.866 17 10C17 6.13401 13.866 3 10 3C6.13401 3 3 6.13401 3 10C3 13.866 6.13401 17 10 17Z" fill="#f8f8f9"/></g><circle cx="602.135" cy="46.315" r="9.265" fill="#dadada"/><g transform="translate(685.51,37.05) scale(0.9265000000000001) rotate(0)"><path fill-rule="evenodd" clip-rule="evenodd" d="M10 20C15.5228 20 20 15.5228 20 10C20 4.47715 15.5228 0 10 0C4.47715 0 0 4.47715 0 10C0 15.5228 4.47715 20 10 20ZM10 17C13.866 17 17 13.866 17 10C17 6.13401 13.866 3 10 3C6.13401 3 3 6.13401 3 10C3 13.866 6.13401 17 10 17Z" fill="#f4f4f4"/></g><rect x="778.1454545454545" y="37.054545454545455" width="18.52727272727273" height="18.52727272727273" fill="#ffffff"/><circle cx="782.78" cy="41.68" r="4.63" fill="#fbfbfb"/><circle cx="792.04" cy="41.68" r="4.63" fill="#fafafb"/><g transform="translate(963.42,37.05) scale(0.9265000000000001) rotate(0)"><path fill-rule="evenodd" clip-rule="evenodd" d="M10 20C15.5228 20 20 15.5228 20 10C20 4.47715 15.5228 0 10 0C4.47715 0 0 4.47715 0 10C0 15.5228 4.47715 20 10 20ZM10 17C13.866 17 17 13.866 17 10C17 6.13401 13.866 3 10 3C6.13401 3 3 6.13401 3 10C3 13.866 6.13401 17 10 17Z" fill="#f7f7f8"/></g><rect x="1241.3272727272727" y="37.054545454545455" width="18.52727272727273" height="18.52727272727273" fill="#ffffff"/><circle cx="1245.96" cy="41.68" r="4.63" fill="#d4d4d4"/><g transform="translate(1797.15,37.05) scale(0.9265000000000001) rotate(0)"><path fill-rule="evenodd" clip-rule="evenodd" d="M10 20C15.5228 20 20 15.5228 20 10C20 4.47715 15.5228 0 10 0C4.47715 0 0 4.47715 0 10C0 15.5228 4.47715 20 10 20ZM10 17C13.866 17 17 13.866 17 10C17 6.13401 13.866 3 10 3C6.13401 3 3 6.13401 3 10C3 13.866 6.13401 17 10 17Z" fill="#fbfbfb"/></g><rect x="1982.418181818182" y="37.054545454545455" width="18.52727272727273" height="18.52727272727273" fill="#ffffff"/><circle cx="138.955" cy="138.955" r="10.145" fill="#f3f4f5"/><circle cx="1343.23" cy="138.96" r="16.32" fill="#e2e2e2"/><circle cx="1435.865" cy="138.95499999999998" r="15.435" fill="#f1f2f3"/><circle cx="1528.4950000000001" cy="138.955" r="14.555" fill="#dddddd"/><g transform="translate(1607.46,125.28) scale(1.3675000000000002) rotate(0)"><path fill-rule="evenodd" clip-rule="evenodd" d="M10 20C15.5228 20 20 15.5228 20 10C20 4.47715 15.5228 0 10 0C4.47715 0 0 4.47715 0 10C0 15.5228 4.47715 20 10 20ZM10 17C13.866 17 17 13.866 17 10C17 6.13401 13.866 3 10 3C6.13401 3 3 6.13401 3 10C3 13.866 6.13401 17 10 17Z" fill="#e6e6e6"/></g><g transform="translate(1700.98,126.16) scale(1.279) rotate(0)"><path fill-rule="evenodd" clip-rule="evenodd" d="M10 20C15.5228 20 20 15.5228 20 10C20 4.47715 15.5228 0 10 0C4.47715 0 0 4.47715 0 10C0 15.5228 4.47715 20 10 20ZM10 17C13.866 17 17 13.866 17 10C17 6.13401 13.866 3 10 3C6.13401 3 3 6.13401 3 10C3 13.866 6.13401 17 10 17Z" fill="#f5f6f6"/></g><circle cx="46.315" cy="231.59500000000003" r="9.265" fill="#d2d2d2"/><rect x="309.6718797896319" y="217.03551615326825" width="29.110785875281735" height="29.110785875281735" fill="#ffffff"/><g transform="translate(324.23,217.04) scale(0.728) rotate(0)"><path fill-rule="evenodd" clip-rule="evenodd" d="M10 20C15.5228 20 20 15.5228 20 10C20 4.47715 15.5228 0 10 0C4.47715 0 0 4.47715 0 10C0 15.5228 4.47715 20 10 20ZM10 17C13.866 17 17 13.866 17 10C17 6.13401 13.866 3 10 3C6.13401 3 3 6.13401 3 10C3 13.866 6.13401 17 10 17Z" fill="#f3f3f4"/></g><g transform="translate(324.23,231.59) scale(0.728) rotate(0)"><path fill-rule="evenodd" clip-rule="evenodd" d="M10 20C15.5228 20 20 15.5228 20 10C20 4.47715 15.5228 0 10 0C4.47715 0 0 4.47715 0 10C0 15.5228 4.47715 20 10 20ZM10 17C13.866 17 17 13.866 17 10C17 6.13401 13.866 3 10 3C6.13401 3 3 6.13401 3 10C3 13.866 6.13401 17 10 17Z" fill="#f9f9f9"/></g><g transform="translate(764.03,208.22) scale(2.3375) rotate(0)"><path fill-rule="evenodd" clip-rule="evenodd" d="M10 20C15.5228 20 20 15.5228 20 10C20 4.47715 15.5228 0 10 0C4.47715 0 0 4.47715 0 10C0 15.5228 4.47715 20 10 20ZM10 17C13.866 17 17 13.866 17 10C17 6.13401 13.866 3 10 3C6.13401 3 3 6.13401 3 10C3 13.866 6.13401 17 10 17Z" fill="#f4f5f6"/></g><rect x="854.9065484598046" y="206.4520030052592" width="50.27781217129977" height="50.27781217129977" fill="#ffffff"/><g transform="translate(854.91,206.45) scale(1.2570000000000001) rotate(0)"><path fill-rule="evenodd" clip-rule="evenodd" d="M10 20C15.5228 20 20 15.5228 20 10C20 4.47715 15.5228 0 10 0C4.47715 0 0 4.47715 0 10C0 15.5228 4.47715 20 10 20ZM10 17C13.866 17 17 13.866 17 10C17 6.13401 13.866 3 10 3C6.13401 3 3 6.13401 3 10C3 13.866 6.13401 17 10 17Z" fill="#dcdcdc"/></g><rect x="1132.521652892562" y="206.15801652892563" width="50.865785123966944" height="50.865785123966944" fill="#ffffff"/><circle cx="1145.235" cy="218.875" r="12.715" fill="#ececec"/><g transform="translate(1157.95,231.59) scale(1.2715) rotate(0)"><path fill-rule="evenodd" clip-rule="evenodd" d="M10 20C15.5228 20 20 15.5228 20 10C20 4.47715 15.5228 0 10 0C4.47715 0 0 4.47715 0 10C0 15.5228 4.47715 20 10 20ZM10 17C13.866 17 17 13.866 17 10C17 6.13401 13.866 3 10 3C6.13401 3 3 6.13401 3 10C3 13.866 6.13401 17 10 17Z" fill="#fefefe"/></g><rect x="1319.8522854996245" y="208.21592186326072" width="46.749974455296766" height="46.749974455296766" fill="#ffffff"/><circle cx="1331.5349999999999" cy="219.905" r="11.685" fill="#ececec"/><g transform="translate(1343.23,231.59) scale(1.1685) rotate(0)"><path fill-rule="evenodd" clip-rule="evenodd" d="M10 20C15.5228 20 20 15.5228 20 10C20 4.47715 15.5228 0 10 0C4.47715 0 0 4.47715 0 10C0 15.5228 4.47715 20 10 20ZM10 17C13.866 17 17 13.866 17 10C17 6.13401 13.866 3 10 3C6.13401 3 3 6.13401 3 10C3 13.866 6.13401 17 10 17Z" fill="#f2f3f4"/></g><circle cx="1528.4950000000001" cy="231.585" r="19.845" fill="#ededed"/><g transform="translate(1697.45,215.27) scale(1.6320000000000001) rotate(0)"><path fill-rule="evenodd" clip-rule="evenodd" d="M10 20C15.5228 20 20 15.5228 20 10C20 4.47715 15.5228 0 10 0C4.47715 0 0 4.47715 0 10C0 15.5228 4.47715 20 10 20ZM10 17C13.866 17 17 13.866 17 10C17 6.13401 13.866 3 10 3C6.13401 3 3 6.13401 3 10C3 13.866 6.13401 17 10 17Z" fill="#fefefe"/></g><rect x="1791.8536979714502" y="217.03551615326825" width="29.110785875281735" height="29.110785875281735" fill="#ffffff"/><g transform="translate(1791.85,217.04) scale(0.728) rotate(0)"><path fill-rule="evenodd" clip-rule="evenodd" d="M10 20C15.5228 20 20 15.5228 20 10C20 4.47715 15.5228 0 10 0C4.47715 0 0 4.47715 0 10C0 15.5228 4.47715 20 10 20ZM10 17C13.866 17 17 13.866 17 10C17 6.13401 13.866 3 10 3C6.13401 3 3 6.13401 3 10C3 13.866 6.13401 17 10 17Z" fill="#f1f1f2"/></g><circle cx="1813.69" cy="238.87" r="7.28" fill="#fbfbfc"/><circle cx="46.315" cy="324.22499999999997" r="9.265" fill="#f2f2f2"/><circle cx="972.68" cy="324.22999999999996" r="33.52" fill="#e5e5e5"/><rect x="1124.4370247933884" y="290.70975206611575" width="67.03504132231404" height="67.03504132231404" fill="#ffffff"/><g transform="translate(1124.44,290.71) scale(1.6760000000000002) rotate(0)"><path fill-rule="evenodd" clip-rule="evenodd" d="M10 20C15.5228 20 20 15.5228 20 10C20 4.47715 15.5228 0 10 0C4.47715 0 0 4.47715 0 10C0 15.5228 4.47715 20 10 20ZM10 17C13.866 17 17 13.866 17 10C17 6.13401 13.866 3 10 3C6.13401 3 3 6.13401 3 10C3 13.866 6.13401 17 10 17Z" fill="#e5e5e5"/></g><rect x="1312.7966100676185" y="293.79661006761836" width="60.86132531930878" height="60.86132531930878" fill="#ffffff"/><circle cx="1328.0149999999999" cy="309.015" r="15.215" fill="#fdfdfd"/><g transform="translate(1343.23,324.23) scale(1.5215) rotate(0)"><path fill-rule="evenodd" clip-rule="evenodd" d="M10 20C15.5228 20 20 15.5228 20 10C20 4.47715 15.5228 0 10 0C4.47715 0 0 4.47715 0 10C0 15.5228 4.47715 20 10 20ZM10 17C13.866 17 17 13.866 17 10C17 6.13401 13.866 3 10 3C6.13401 3 3 6.13401 3 10C3 13.866 6.13401 17 10 17Z" fill="#d0d0d0"/></g><g transform="translate(1979.77,312.32) scale(1.191) rotate(0)"><path fill-rule="evenodd" clip-rule="evenodd" d="M10 20C15.5228 20 20 15.5228 20 10C20 4.47715 15.5228 0 10 0C4.47715 0 0 4.47715 0 10C0 15.5228 4.47715 20 10 20ZM10 17C13.866 17 17 13.866 17 10C17 6.13401 13.866 3 10 3C6.13401 3 3 6.13401 3 10C3 13.866 6.13401 17 10 17Z" fill="#efefef"/></g><g transform="translate(126.16,404.07) scale(1.279) rotate(0)"><path fill-rule="evenodd" clip-rule="evenodd" d="M10 20C15.5228 20 20 15.5228 20 10C20 4.47715 15.5228 0 10 0C4.47715 0 0 4.47715 0 10C0 15.5228 4.47715 20 10 20ZM10 17C13.866 17 17 13.866 17 10C17 6.13401 13.866 3 10 3C6.13401 3 3 6.13401 3 10C3 13.866 6.13401 17 10 17Z" fill="#fafafb"/></g><g transform="translate(215.27,400.54) scale(1.6320000000000001) rotate(0)"><path fill-rule="evenodd" clip-rule="evenodd" d="M10 20C15.5228 20 20 15.5228 20 10C20 4.47715 15.5228 0 10 0C4.47715 0 0 4.47715 0 10C0 15.5228 4.47715 20 10 20ZM10 17C13.866 17 17 13.866 17 10C17 6.13401 13.866 3 10 3C6.13401 3 3 6.13401 3 10C3 13.866 6.13401 17 10 17Z" fill="#dbdbdb"/></g><g transform="translate(304.38,397.02) scale(1.9845) rotate(0)"><path fill-rule="evenodd" clip-rule="evenodd" d="M10 20C15.5228 20 20 15.5228 20 10C20 4.47715 15.5228 0 10 0C4.47715 0 0 4.47715 0 10C0 15.5228 4.47715 20 10 20ZM10 17C13.866 17 17 13.866 17 10C17 6.13401 13.866 3 10 3C6.13401 3 3 6.13401 3 10C3 13.866 6.13401 17 10 17Z" fill="#fbfbfb"/></g><g transform="translate(571.71,386.43) scale(3.043) rotate(0)"><path fill-rule="evenodd" clip-rule="evenodd" d="M10 20C15.5228 20 20 15.5228 20 10C20 4.47715 15.5228 0 10 0C4.47715 0 0 4.47715 0 10C0 15.5228 4.47715 20 10 20ZM10 17C13.866 17 17 13.866 17 10C17 6.13401 13.866 3 10 3C6.13401 3 3 6.13401 3 10C3 13.866 6.13401 17 10 17Z" fill="#e2e2e2"/></g><rect x="931.0796694214877" y="375.2614876033058" width="83.20429752066116" height="83.20429752066116" fill="#ffffff"/><circle cx="1250.595" cy="416.865" r="41.015" fill="#f2f2f2"/><rect x="1498.0693373403458" y="386.432973703982" width="60.86132531930878" height="60.86132531930878" fill="#ffffff"/><g transform="translate(1498.07,386.43) scale(1.5215) rotate(0)"><path fill-rule="evenodd" clip-rule="evenodd" d="M10 20C15.5228 20 20 15.5228 20 10C20 4.47715 15.5228 0 10 0C4.47715 0 0 4.47715 0 10C0 15.5228 4.47715 20 10 20ZM10 17C13.866 17 17 13.866 17 10C17 6.13401 13.866 3 10 3C6.13401 3 3 6.13401 3 10C3 13.866 6.13401 17 10 17Z" fill="#fefefe"/></g><circle cx="1543.715" cy="401.645" r="15.215" fill="#fcfdfd"/><circle cx="1713.775" cy="416.865" r="23.375" fill="#e6e6e6"/><g transform="translate(568.62,475.98) scale(3.3520000000000003) rotate(0)"><path fill-rule="evenodd" clip-rule="evenodd" d="M10 20C15.5228 20 20 15.5228 20 10C20 4.47715 15.5228 0 10 0C4.47715 0 0 4.47715 0 10C0 15.5228 4.47715 20 10 20ZM10 17C13.866 17 17 13.866 17 10C17 6.13401 13.866 3 10 3C6.13401 3 3 6.13401 3 10C3 13.866 6.13401 17 10 17Z" fill="#f9f9f9"/></g><rect x="1019" y="463.1818181818182" width="92.63636363636364" height="92.63636363636364" fill="#ffffff"/><circle cx="1042.16" cy="486.34000000000003" r="23.16" fill="#f5f5f5"/><g transform="translate(1019,509.5) scale(2.316) rotate(0)"><path fill-rule="evenodd" clip-rule="evenodd" d="M10 20C15.5228 20 20 15.5228 20 10C20 4.47715 15.5228 0 10 0C4.47715 0 0 4.47715 0 10C0 15.5228 4.47715 20 10 20ZM10 17C13.866 17 17 13.866 17 10C17 6.13401 13.866 3 10 3C6.13401 3 3 6.13401 3 10C3 13.866 6.13401 17 10 17Z" fill="#f5f6f6"/></g><circle cx="1899.05" cy="509.5" r="17.35" fill="#f9f9fa"/><g transform="translate(1978.38,496.19) scale(1.3305) rotate(0)"><path fill-rule="evenodd" clip-rule="evenodd" d="M10 20C15.5228 20 20 15.5228 20 10C20 4.47715 15.5228 0 10 0C4.47715 0 0 4.47715 0 10C0 15.5228 4.47715 20 10 20ZM10 17C13.866 17 17 13.866 17 10C17 6.13401 13.866 3 10 3C6.13401 3 3 6.13401 3 10C3 13.866 6.13401 17 10 17Z" fill="#e7e7e7"/></g><circle cx="46.315" cy="602.135" r="9.265" fill="#f6f6f6"/><g transform="translate(125.65,588.83) scale(1.3305) rotate(0)"><path fill-rule="evenodd" clip-rule="evenodd" d="M10 20C15.5228 20 20 15.5228 20 10C20 4.47715 15.5228 0 10 0C4.47715 0 0 4.47715 0 10C0 15.5228 4.47715 20 10 20ZM10 17C13.866 17 17 13.866 17 10C17 6.13401 13.866 3 10 3C6.13401 3 3 6.13401 3 10C3 13.866 6.13401 17 10 17Z" fill="#e4e4e4"/></g><circle cx="694.77" cy="602.1400000000001" r="37.56" fill="#fbfbfb"/><g transform="translate(834.4,556.49) scale(4.564500000000001) rotate(0)"><path fill-rule="evenodd" clip-rule="evenodd" d="M10 20C15.5228 20 20 15.5228 20 10C20 4.47715 15.5228 0 10 0C4.47715 0 0 4.47715 0 10C0 15.5228 4.47715 20 10 20ZM10 17C13.866 17 17 13.866 17 10C17 6.13401 13.866 3 10 3C6.13401 3 3 6.13401 3 10C3 13.866 6.13401 17 10 17Z" fill="#f2f2f2"/></g><circle cx="1621.135" cy="602.135" r="29.475" fill="#f0f0f0"/><circle cx="1713.7749999999999" cy="602.135" r="25.435" fill="#fdfdfd"/><rect x="1978.375867768595" y="588.8304132231406" width="26.611900826446288" height="26.611900826446288" fill="#ffffff"/><g transform="translate(1978.38,588.83) scale(0.6655) rotate(0)"><path fill-rule="evenodd" clip-rule="evenodd" d="M10 20C15.5228 20 20 15.5228 20 10C20 4.47715 15.5228 0 10 0C4.47715 0 0 4.47715 0 10C0 15.5228 4.47715 20 10 20ZM10 17C13.866 17 17 13.866 17 10C17 6.13401 13.866 3 10 3C6.13401 3 3 6.13401 3 10C3 13.866 6.13401 17 10 17Z" fill="#f2f2f3"/></g><circle cx="46.315" cy="694.775" r="9.265" fill="#f9f9fa"/><g transform="translate(304.38,674.93) scale(1.9845) rotate(0)"><path fill-rule="evenodd" clip-rule="evenodd" d="M10 20C15.5228 20 20 15.5228 20 10C20 4.47715 15.5228 0 10 0C4.47715 0 0 4.47715 0 10C0 15.5228 4.47715 20 10 20ZM10 17C13.866 17 17 13.866 17 10C17 6.13401 13.866 3 10 3C6.13401 3 3 6.13401 3 10C3 13.866 6.13401 17 10 17Z" fill="#d9d9d9"/></g><circle cx="509.505" cy="694.775" r="26.905" fill="#fafafa"/><circle cx="1899.05" cy="694.7700000000001" r="16.32" fill="#f5f6f6"/><g transform="translate(1978.89,681.98) scale(1.279) rotate(0)"><path fill-rule="evenodd" clip-rule="evenodd" d="M10 20C15.5228 20 20 15.5228 20 10C20 4.47715 15.5228 0 10 0C4.47715 0 0 4.47715 0 10C0 15.5228 4.47715 20 10 20ZM10 17C13.866 17 17 13.866 17 10C17 6.13401 13.866 3 10 3C6.13401 3 3 6.13401 3 10C3 13.866 6.13401 17 10 17Z" fill="#fdfefe"/></g><circle cx="231.595" cy="787.405" r="14.555" fill="#f4f5f6"/><circle cx="324.22999999999996" cy="787.4100000000001" r="17.2" fill="#f9fafa"/><g transform="translate(487.01,764.92) scale(2.2495000000000003) rotate(0)"><path fill-rule="evenodd" clip-rule="evenodd" d="M10 20C15.5228 20 20 15.5228 20 10C20 4.47715 15.5228 0 10 0C4.47715 0 0 4.47715 0 10C0 15.5228 4.47715 20 10 20ZM10 17C13.866 17 17 13.866 17 10C17 6.13401 13.866 3 10 3C6.13401 3 3 6.13401 3 10C3 13.866 6.13401 17 10 17Z" fill="#fafafa"/></g><g transform="translate(577,762.27) scale(2.5140000000000002) rotate(0)"><path fill-rule="evenodd" clip-rule="evenodd" d="M10 20C15.5228 20 20 15.5228 20 10C20 4.47715 15.5228 0 10 0C4.47715 0 0 4.47715 0 10C0 15.5228 4.47715 20 10 20ZM10 17C13.866 17 17 13.866 17 10C17 6.13401 13.866 3 10 3C6.13401 3 3 6.13401 3 10C3 13.866 6.13401 17 10 17Z" fill="#f2f3f4"/></g><g transform="translate(756.98,756.98) scale(3.043) rotate(0)"><path fill-rule="evenodd" clip-rule="evenodd" d="M10 20C15.5228 20 20 15.5228 20 10C20 4.47715 15.5228 0 10 0C4.47715 0 0 4.47715 0 10C0 15.5228 4.47715 20 10 20ZM10 17C13.866 17 17 13.866 17 10C17 6.13401 13.866 3 10 3C6.13401 3 3 6.13401 3 10C3 13.866 6.13401 17 10 17Z" fill="#fcfcfd"/></g><g transform="translate(1124.44,753.89) scale(3.3520000000000003) rotate(0)"><path fill-rule="evenodd" clip-rule="evenodd" d="M10 20C15.5228 20 20 15.5228 20 10C20 4.47715 15.5228 0 10 0C4.47715 0 0 4.47715 0 10C0 15.5228 4.47715 20 10 20ZM10 17C13.866 17 17 13.866 17 10C17 6.13401 13.866 3 10 3C6.13401 3 3 6.13401 3 10C3 13.866 6.13401 17 10 17Z" fill="#d5d5d5"/></g><rect x="1312.7966100676185" y="756.9784282494365" width="60.86132531930878" height="60.86132531930878" fill="#ffffff"/><circle cx="1328.0149999999999" cy="772.195" r="15.215" fill="#f9f9fa"/><rect x="1408.0788519909843" y="759.6243065364388" width="55.569568745304274" height="55.569568745304274" fill="#ffffff"/><g transform="translate(1408.08,787.41) scale(1.389) rotate(0)"><path fill-rule="evenodd" clip-rule="evenodd" d="M10 20C15.5228 20 20 15.5228 20 10C20 4.47715 15.5228 0 10 0C4.47715 0 0 4.47715 0 10C0 15.5228 4.47715 20 10 20ZM10 17C13.866 17 17 13.866 17 10C17 6.13401 13.866 3 10 3C6.13401 3 3 6.13401 3 10C3 13.866 6.13401 17 10 17Z" fill="#cdcdcd"/></g><circle cx="1449.75" cy="801.3" r="13.89" fill="#f7f7f7"/><rect x="1693.925577761082" y="767.5619413974456" width="39.69429902329075" height="39.69429902329075" fill="#ffffff"/><circle cx="1703.855" cy="777.4849999999999" r="9.925" fill="#f1f2f3"/><g transform="translate(1713.77,767.56) scale(0.9925) rotate(0)"><path fill-rule="evenodd" clip-rule="evenodd" d="M10 20C15.5228 20 20 15.5228 20 10C20 4.47715 15.5228 0 10 0C4.47715 0 0 4.47715 0 10C0 15.5228 4.47715 20 10 20ZM10 17C13.866 17 17 13.866 17 10C17 6.13401 13.866 3 10 3C6.13401 3 3 6.13401 3 10C3 13.866 6.13401 17 10 17Z" fill="#cecece"/></g><circle cx="1806.41" cy="787.4100000000001" r="17.2" fill="#fbfbfc"/><circle cx="1899.045" cy="787.405" r="14.555" fill="#f4f4f4"/><rect x="218.79943501126974" y="867.2539804658152" width="25.582948159278743" height="25.582948159278743" fill="#ffffff"/><circle cx="237.985" cy="873.645" r="6.395" fill="#fafafa"/><g transform="translate(231.59,880.05) scale(0.6395) rotate(0)"><path fill-rule="evenodd" clip-rule="evenodd" d="M10 20C15.5228 20 20 15.5228 20 10C20 4.47715 15.5228 0 10 0C4.47715 0 0 4.47715 0 10C0 15.5228 4.47715 20 10 20ZM10 17C13.866 17 17 13.866 17 10C17 6.13401 13.866 3 10 3C6.13401 3 3 6.13401 3 10C3 13.866 6.13401 17 10 17Z" fill="#e7e7e7"/></g><circle cx="324.225" cy="880.045" r="14.555" fill="#e7e7e7"/><circle cx="416.86" cy="880.0500000000001" r="16.32" fill="#f4f4f4"/><rect x="582.2892141247183" y="860.1983050338092" width="39.69429902329075" height="39.69429902329075" fill="#ffffff"/><g transform="translate(673.16,858.43) scale(2.161) rotate(0)"><path fill-rule="evenodd" clip-rule="evenodd" d="M10 20C15.5228 20 20 15.5228 20 10C20 4.47715 15.5228 0 10 0C4.47715 0 0 4.47715 0 10C0 15.5228 4.47715 20 10 20ZM10 17C13.866 17 17 13.866 17 10C17 6.13401 13.866 3 10 3C6.13401 3 3 6.13401 3 10C3 13.866 6.13401 17 10 17Z" fill="#f3f4f5"/></g><g transform="translate(947.25,854.61) scale(2.5435) rotate(0)"><path fill-rule="evenodd" clip-rule="evenodd" d="M10 20C15.5228 20 20 15.5228 20 10C20 4.47715 15.5228 0 10 0C4.47715 0 0 4.47715 0 10C0 15.5228 4.47715 20 10 20ZM10 17C13.866 17 17 13.866 17 10C17 6.13401 13.866 3 10 3C6.13401 3 3 6.13401 3 10C3 13.866 6.13401 17 10 17Z" fill="#f4f5f6"/></g><g transform="translate(1039.89,854.61) scale(2.5435) rotate(0)"><path fill-rule="evenodd" clip-rule="evenodd" d="M10 20C15.5228 20 20 15.5228 20 10C20 4.47715 15.5228 0 10 0C4.47715 0 0 4.47715 0 10C0 15.5228 4.47715 20 10 20ZM10 17C13.866 17 17 13.866 17 10C17 6.13401 13.866 3 10 3C6.13401 3 3 6.13401 3 10C3 13.866 6.13401 17 10 17Z" fill="#dcdcdc"/></g><circle cx="1250.5900000000001" cy="880.05" r="25.14" fill="#d6d6d6"/><rect x="1508.6528504883547" y="860.1983050338092" width="39.69429902329075" height="39.69429902329075" fill="#ffffff"/><g transform="translate(1508.65,860.2) scale(0.9925) rotate(0)"><path fill-rule="evenodd" clip-rule="evenodd" d="M10 20C15.5228 20 20 15.5228 20 10C20 4.47715 15.5228 0 10 0C4.47715 0 0 4.47715 0 10C0 15.5228 4.47715 20 10 20ZM10 17C13.866 17 17 13.866 17 10C17 6.13401 13.866 3 10 3C6.13401 3 3 6.13401 3 10C3 13.866 6.13401 17 10 17Z" fill="#fbfbfb"/></g><g transform="translate(1508.65,880.05) scale(0.9925) rotate(0)"><path fill-rule="evenodd" clip-rule="evenodd" d="M10 20C15.5228 20 20 15.5228 20 10C20 4.47715 15.5228 0 10 0C4.47715 0 0 4.47715 0 10C0 15.5228 4.47715 20 10 20ZM10 17C13.866 17 17 13.866 17 10C17 6.13401 13.866 3 10 3C6.13401 3 3 6.13401 3 10C3 13.866 6.13401 17 10 17Z" fill="#f2f3f4"/></g><g transform="translate(1528.5,880.05) scale(0.9925) rotate(0)"><path fill-rule="evenodd" clip-rule="evenodd" d="M10 20C15.5228 20 20 15.5228 20 10C20 4.47715 15.5228 0 10 0C4.47715 0 0 4.47715 0 10C0 15.5228 4.47715 20 10 20ZM10 17C13.866 17 17 13.866 17 10C17 6.13401 13.866 3 10 3C6.13401 3 3 6.13401 3 10C3 13.866 6.13401 17 10 17Z" fill="#efefef"/></g><rect x="495.82656649135987" y="959.008384673178" width="27.346867017280232" height="27.346867017280232" fill="#ffffff"/><g transform="translate(495.83,959.01) scale(0.6835) rotate(0)"><path fill-rule="evenodd" clip-rule="evenodd" d="M10 20C15.5228 20 20 15.5228 20 10C20 4.47715 15.5228 0 10 0C4.47715 0 0 4.47715 0 10C0 15.5228 4.47715 20 10 20ZM10 17C13.866 17 17 13.866 17 10C17 6.13401 13.866 3 10 3C6.13401 3 3 6.13401 3 10C3 13.866 6.13401 17 10 17Z" fill="#f2f2f2"/></g><circle cx="502.66499999999996" cy="979.515" r="6.835" fill="#ffffff"/><g transform="translate(509.5,972.68) scale(0.6835) rotate(0)"><path fill-rule="evenodd" clip-rule="evenodd" d="M10 20C15.5228 20 20 15.5228 20 10C20 4.47715 15.5228 0 10 0C4.47715 0 0 4.47715 0 10C0 15.5228 4.47715 20 10 20ZM10 17C13.866 17 17 13.866 17 10C17 6.13401 13.866 3 10 3C6.13401 3 3 6.13401 3 10C3 13.866 6.13401 17 10 17Z" fill="#fafafa"/></g><rect x="587.5809706987228" y="958.1264252441773" width="29.110785875281735" height="29.110785875281735" fill="#ffffff"/><g transform="translate(587.58,958.13) scale(0.728) rotate(0)"><path fill-rule="evenodd" clip-rule="evenodd" d="M10 20C15.5228 20 20 15.5228 20 10C20 4.47715 15.5228 0 10 0C4.47715 0 0 4.47715 0 10C0 15.5228 4.47715 20 10 20ZM10 17C13.866 17 17 13.866 17 10C17 6.13401 13.866 3 10 3C6.13401 3 3 6.13401 3 10C3 13.866 6.13401 17 10 17Z" fill="#f4f5f5"/></g><circle cx="880.0400000000001" cy="972.6800000000001" r="17.2" fill="#fcfcfc"/><rect x="1047.969917355372" y="955.3335537190083" width="34.69652892561983" height="34.69652892561983" fill="#ffffff"/><g transform="translate(1047.97,955.33) scale(0.8675) rotate(0)"><path fill-rule="evenodd" clip-rule="evenodd" d="M10 20C15.5228 20 20 15.5228 20 10C20 4.47715 15.5228 0 10 0C4.47715 0 0 4.47715 0 10C0 15.5228 4.47715 20 10 20ZM10 17C13.866 17 17 13.866 17 10C17 6.13401 13.866 3 10 3C6.13401 3 3 6.13401 3 10C3 13.866 6.13401 17 10 17Z" fill="#f7f8f8"/></g><g transform="translate(1065.32,955.33) scale(0.8675) rotate(0)"><path fill-rule="evenodd" clip-rule="evenodd" d="M10 20C15.5228 20 20 15.5228 20 10C20 4.47715 15.5228 0 10 0C4.47715 0 0 4.47715 0 10C0 15.5228 4.47715 20 10 20ZM10 17C13.866 17 17 13.866 17 10C17 6.13401 13.866 3 10 3C6.13401 3 3 6.13401 3 10C3 13.866 6.13401 17 10 17Z" fill="#e0e0e0"/></g><circle cx="1056.645" cy="981.3549999999999" r="8.675" fill="#f6f7f7"/><circle cx="1435.865" cy="972.675" r="15.435" fill="#dfdfdf"/><g transform="translate(1513.94,958.13) scale(1.4555) rotate(0)"><path fill-rule="evenodd" clip-rule="evenodd" d="M10 20C15.5228 20 20 15.5228 20 10C20 4.47715 15.5228 0 10 0C4.47715 0 0 4.47715 0 10C0 15.5228 4.47715 20 10 20ZM10 17C13.866 17 17 13.866 17 10C17 6.13401 13.866 3 10 3C6.13401 3 3 6.13401 3 10C3 13.866 6.13401 17 10 17Z" fill="#f9fafa"/></g><circle cx="1621.135" cy="972.685" r="13.675" fill="#f5f5f5"/><rect x="1700.981253193088" y="959.8903441021788" width="25.582948159278743" height="25.582948159278743" fill="#ffffff"/><g transform="translate(1700.98,959.89) scale(0.6395) rotate(0)"><path fill-rule="evenodd" clip-rule="evenodd" d="M10 20C15.5228 20 20 15.5228 20 10C20 4.47715 15.5228 0 10 0C4.47715 0 0 4.47715 0 10C0 15.5228 4.47715 20 10 20ZM10 17C13.866 17 17 13.866 17 10C17 6.13401 13.866 3 10 3C6.13401 3 3 6.13401 3 10C3 13.866 6.13401 17 10 17Z" fill="#fafafa"/></g><g transform="translate(1713.77,959.89) scale(0.6395) rotate(0)"><path fill-rule="evenodd" clip-rule="evenodd" d="M10 20C15.5228 20 20 15.5228 20 10C20 4.47715 15.5228 0 10 0C4.47715 0 0 4.47715 0 10C0 15.5228 4.47715 20 10 20ZM10 17C13.866 17 17 13.866 17 10C17 6.13401 13.866 3 10 3C6.13401 3 3 6.13401 3 10C3 13.866 6.13401 17 10 17Z" fill="#f7f8f8"/></g><g transform="translate(1794.5,960.77) scale(1.191) rotate(0)"><path fill-rule="evenodd" clip-rule="evenodd" d="M10 20C15.5228 20 20 15.5228 20 10C20 4.47715 15.5228 0 10 0C4.47715 0 0 4.47715 0 10C0 15.5228 4.47715 20 10 20ZM10 17C13.866 17 17 13.866 17 10C17 6.13401 13.866 3 10 3C6.13401 3 3 6.13401 3 10C3 13.866 6.13401 17 10 17Z" fill="#e0e0e0"/></g><rect x="1981.5362223891811" y="962.536222389181" width="20.29119158527422" height="20.29119158527422" fill="#ffffff"/></g></svg>