<svg xmlns="http://www.w3.org/2000/svg" xmlns:xlink="http://www.w3.org/1999/xlink" viewBox="0 0 275 275"><defs><style>.cls-1{fill:#ddd;}.cls-2{opacity:0.5;}.cls-3{fill:#dfdfde;}.cls-4{fill:#919191;}.cls-5{fill:#f59736;}.cls-6{fill:url(#linear-gradient);}.cls-7{fill:#f27d04;}</style><linearGradient id="linear-gradient" x1="137.5" y1="211.45" x2="137.5" y2="197.72" gradientUnits="userSpaceOnUse"><stop offset="0" stop-color="#f59736"/><stop offset="0.48" stop-color="#f59634"/><stop offset="0.68" stop-color="#f4922d"/><stop offset="0.82" stop-color="#f48c21"/><stop offset="0.94" stop-color="#f3830f"/><stop offset="1" stop-color="#f27d04"/></linearGradient></defs><title>Roller_Inside_Mount</title><g id="FINAL"><rect class="cls-1" x="94.35" y="27.25" width="5.63" height="221.1"/><rect class="cls-1" x="175.35" y="27.25" width="5.63" height="221.1"/><rect class="cls-1" x="134.72" y="-8.22" width="5.63" height="208.93" transform="translate(41.28 233.78) rotate(-90)"/><rect class="cls-1" x="134.72" y="71.78" width="5.63" height="208.93" transform="translate(-38.72 313.78) rotate(-90)"/><g class="cls-2"><path class="cls-3" d="M-3.62,300.5v-8.29h-.16v-305l282-6.27v7h.15V300.5Zm247.16-50.7V25.7h-212V249.8Z"/><path class="cls-4" d="M276.75-17.5v7h.15V299h-279V286l-.16,6.21V-11.29l279-6.21M30.07,251.3H245V24.2h-215V251.3M279.75-20.57l-3.07.07-279,6.21-2.94.06V292.21h.16V302h285V-13.5h-.15v-7.07ZM33.07,27.2H242V248.3h-209V27.2Z"/></g></g><g id="Inside_-_Roller" data-name="Inside - Roller"><rect class="cls-5" x="34.51" y="42.45" width="205.93" height="156.22"/><rect class="cls-6" x="34.55" y="198.67" width="205.89" height="11.33"/><rect class="cls-5" x="30" y="24" width="214.96" height="20.45"/><rect class="cls-7" x="30" y="24" width="3.55" height="20.45"/><rect class="cls-7" x="30" y="24" width="214.96" height="3"/><rect class="cls-7" x="30" y="41.45" width="214.96" height="3"/><rect class="cls-7" x="241.45" y="24" width="3.55" height="20.45"/></g></svg>